<?xml version="1.0" encoding="UTF-8"?>
<svg width="200px" height="200px" viewBox="0 0 200 200" xmlns="http://www.w3.org/2000/svg">
  <g fill="none" fill-rule="evenodd">
    <circle fill="#007BFF" cx="100" cy="100" r="100"/>
    <path d="M155,120 C155,125.523 150.523,130 145,130 C139.477,130 135,125.523 135,120 C135,114.477 139.477,110 145,110 C150.523,110 155,114.477 155,120" fill="#FFFFFF"/>
    <path d="M65,120 C65,125.523 60.523,130 55,130 C49.477,130 45,125.523 45,120 C45,114.477 49.477,110 55,110 C60.523,110 65,114.477 65,120" fill="#FFFFFF"/>
    <path d="M147,85 L130,55 C127.5,50 122.5,45 115,45 L85,45 C77.5,45 72.5,50 70,55 L53,85 C45,90 40,95 40,105 L40,115 C40,125 45,130 55,130 L145,130 C155,130 160,125 160,115 L160,105 C160,95 155,90 147,85 Z" stroke="#FFFFFF" stroke-width="3" fill-opacity="0.3" fill="#FFFFFF"/>
    <path d="M145,90 L55,90 C50,90 45,95 45,100 L45,110 C45,115 50,120 55,120 L145,120 C150,120 155,115 155,110 L155,100 C155,95 150,90 145,90 Z" fill="#FFFFFF"/>
    <path d="M80,60 L120,60 C122.5,60 125,62.5 125,65 L125,75 C125,77.5 122.5,80 120,80 L80,80 C77.5,80 75,77.5 75,75 L75,65 C75,62.5 77.5,60 80,60 Z" fill="#FFFFFF"/>
    <text font-family="Arial, sans-serif" font-size="24" font-weight="bold" fill="#007BFF" x="70" y="150">
      OtoCar
    </text>
  </g>
</svg> 